<svg xmlns="http://www.w3.org/2000/svg" xmlns:xlink="http://www.w3.org/1999/xlink" viewBox="0 0 300.18 316.71"><defs><linearGradient id="a" x1="350.41" y1="420.61" x2="350.41" y2="420.61" gradientUnits="userSpaceOnUse"><stop offset="0" stop-color="#fff"/><stop offset="1"/></linearGradient></defs><path d="M135.38,191.83" transform="translate(-89.24 -148.9)" fill="none" stroke="#231f20" stroke-miterlimit="10"/><path d="M126.9,392c-3.42-4.74,22.38,44.42,41.95,49.54,18.61,4.36,37.67-8.65,40.56-23.06C211.92,404.4,183.63,371,176.17,386,162.24,410.67,129.75,399,126.9,392Z" transform="translate(-89.24 -148.9)" fill="#8b5e3c"/><path d="M126.9,392c-3.42-4.74,22.38,44.42,41.95,49.54,18.61,4.36,37.67-8.65,40.56-23.06C211.92,404.4,183.63,371,176.17,386,162.24,410.67,129.75,399,126.9,392Z" transform="translate(-89.24 -148.9)" fill="none" stroke="#231f20" stroke-miterlimit="10"/><path d="M198.89,186.58c1.2,23.72-64.81-4.91-73.52,8.6-7,10.9,0,9-1.54-13.87-3.2-49,62.65-20.54,73.48-21.25S197.39,156.94,198.89,186.58Z" transform="translate(-89.24 -148.9)" fill="#6e451b" stroke="#231f20" stroke-miterlimit="10"/><path d="M350.41,420.61" transform="translate(-89.24 -148.9)" stroke="#231f20" stroke-miterlimit="10" fill="url(#a)"/><path d="M367.15,428.07a12.28,12.28,0,0,1-11.37,8.59H162.13c-6.7,0-10.56-6.31-7.84-12.7,48-104.19,45-239.94,6.28-251.85-59.68-20.17-1.11-19,5.75-19.28h1c43.49,3.43,52.47,4,68.4,4.36,15.84-.06,39.08-.45,109.52-7.67,10.79-1.22,22.52,6.33,25.77,17C396.45,250.58,394.46,336.8,367.15,428.07Z" transform="translate(-89.24 -148.9)" fill="#b67129"/><path d="M367.15,428.07a12.28,12.28,0,0,1-11.37,8.59H162.13c-6.7,0-10.56-6.31-7.84-12.7,48-104.19,45-239.94,6.28-251.85-59.68-20.17-1.11-19,5.75-19.28h1c43.49,3.43,52.47,4,68.4,4.36,15.84-.06,39.08-.45,109.52-7.67,10.79-1.22,22.52,6.33,25.77,17C396.45,250.58,394.46,336.8,367.15,428.07Z" transform="translate(-89.24 -148.9)" fill="none" stroke="#231f20" stroke-miterlimit="10"/><path d="M353.93,393.5l9.07-.89c1.58,0,8-.38,8,1.2l-5.12,41.5a2.89,2.89,0,0,1-2.88,2.88H315.05c-1.59,0,4.48-18.07,4.48-19.65l5.43-16.6C325,400.36,352.34,393.5,353.93,393.5Z" transform="translate(-89.24 -148.9)" fill="#fff"/><ellipse cx="347.82" cy="410.95" rx="25.93" ry="14.19" transform="translate(-279.79 258.69) rotate(-49.4)" fill="#fff"/><ellipse cx="330.69" cy="406.17" rx="10.86" ry="9.65" transform="translate(-264.01 394.5) rotate(-66.04)" fill="#fff"/><ellipse cx="324.55" cy="421.51" rx="16.52" ry="9.65" transform="translate(-281.69 397.99) rotate(-66.04)" fill="#fff"/><path d="M90.54,187.13" transform="translate(-89.24 -148.9)" fill="#fff" stroke="#231f20" stroke-miterlimit="10" stroke-width="2"/><ellipse cx="369.31" cy="413.41" rx="25.93" ry="14.19" transform="translate(-274.16 275.87) rotate(-49.4)" fill="#fff"/><path d="M371,393.81s-50.26,14.47-55.95,44.38" transform="translate(-89.24 -148.9)" fill="#fff"/><ellipse cx="109.26" cy="219.49" rx="25.93" ry="14.19" transform="translate(-217.73 10.7) rotate(-49.4)" fill="#fff"/><ellipse cx="69.48" cy="302.52" rx="25.93" ry="14.19" fill="#fff"/><ellipse cx="104.48" cy="302.52" rx="25.93" ry="14.19" fill="#fff"/><ellipse cx="81.55" cy="302.52" rx="25.93" ry="14.19" fill="#fff"/><ellipse cx="91.83" cy="302.3" rx="25.93" ry="14.19" fill="#fff"/><rect x="135.94" y="82" width="102.08" height="1.95" fill="#fff" stroke="#231f20" stroke-miterlimit="10" stroke-width="5"/><rect x="183.38" y="121.18" width="85.27" height="1.2" fill="#fff" stroke="#231f20" stroke-miterlimit="10" stroke-width="5"/><rect x="148.55" y="155.71" width="84.06" height="1.5" fill="#fff" stroke="#231f20" stroke-miterlimit="10" stroke-width="5"/><rect x="179.78" y="195.04" width="18.61" height="0.6" fill="#fff" stroke="#231f20" stroke-miterlimit="10" stroke-width="5"/></svg>